
<svg  viewBox="0 0 696 140" version="1.1" xmlns="http://www.w3.org/2000/svg" xmlns:xlink="http://www.w3.org/1999/xlink">
    <title>logo/full/light</title>
    <defs>
        <linearGradient x1="83.7508197%" y1="38.7466982%" x2="12.8524197%" y2="86.9043504%" id="linearGradient-1">
            <stop stop-color="#FFE770" offset="0%"></stop>
            <stop stop-color="#FFAA4F" offset="100%"></stop>
        </linearGradient>
        <linearGradient x1="15.685268%" y1="61.4819827%" x2="87.1344296%" y2="13.591157%" id="linearGradient-2">
            <stop stop-color="#F55684" offset="0%"></stop>
            <stop stop-color="#CF2D5D" offset="100%"></stop>
        </linearGradient>
        <linearGradient x1="25.1517451%" y1="49.9894941%" x2="81.7904021%" y2="22.3275368%" id="linearGradient-3">
            <stop stop-color="#F0764A" offset="0%"></stop>
            <stop stop-color="#FFAA4F" offset="100%"></stop>
        </linearGradient>
        <linearGradient x1="74.8103187%" y1="50.0210117%" x2="20.8649469%" y2="77.1786873%" id="linearGradient-4">
            <stop stop-color="#911C4B" offset="0%"></stop>
            <stop stop-color="#CF2D5D" offset="100%"></stop>
        </linearGradient>
    </defs>
    <g id="logo/full/light" stroke="none" stroke-width="1" fill="none" fill-rule="evenodd">
        <g id="Group" transform="translate(122.200000, 33.300000)" fill="#FFFFFF" fill-rule="nonzero">
            <g id="Chris-Jayden" transform="translate(-0.400000, -0.300000)">
                <path d="M36.1,71.5 C52.2,71.5 60.9,62.2 65.2,53.6 L50.4,46.6 C48.2,51.9 42.5,56.3 36.1,56.3 C25.2,56.3 17.5,47.9 17.5,37 C17.5,26.1 25.2,17.7 36.1,17.7 C42.5,17.7 48.2,22.1 50.4,27.4 L65.2,20.4 C60.8,11.6 52.2,2.5 36.1,2.5 C15.6,2.5 -2.84217094e-14,16.4 -2.84217094e-14,37 C-2.84217094e-14,57.5 15.6,71.5 36.1,71.5 Z" id="Path"></path>
                <path d="M119,70.3 L119,35.9 C119,27 114,20.8 103,20.8 C94.9,20.8 89.2,24.5 86.3,27.9 L86.3,3.6 L70.9,3.6 L70.9,70.3 L86.3,70.3 L86.3,39.1 C88.1,36.9 91.1,34.4 95.6,34.4 C100.5,34.4 103.6,36.3 103.6,42.2 L103.6,70.3 L119,70.3 Z" id="Path"></path>
                <path d="M144.2,70.3 L144.2,39.5 C146.2,36.8 151.5,35.1 155.5,35.1 C157.1,35.1 158.4,35.3 159.3,35.5 L159.3,20.7 C153.5,20.7 147.4,24 144.2,27.9 L144.2,22 L128.8,22 L128.8,70.3 L144.2,70.3 Z" id="Path"></path>
                <path d="M172.6,17.7 C177.5,17.7 181.4,13.7 181.4,8.8 C181.4,3.9 177.5,0 172.6,0 C167.7,0 163.8,3.9 163.8,8.8 C163.8,13.7 167.7,17.7 172.6,17.7 Z M180.3,70.3 L180.3,22 L164.9,22 L164.9,70.3 L180.3,70.3 Z" id="Shape"></path>
                <path d="M208.6,71.5 C222.5,71.5 230.6,64.7 230.6,55.5 C230.6,35.7 202.5,41.2 202.5,35.6 C202.5,33.6 205,32.1 208.6,32.1 C214.4,32.1 219.9,34.6 222.8,37.4 L228.7,27.2 C223.5,23.4 216.6,20.8 208.5,20.8 C195.1,20.8 187.8,28.2 187.8,36.7 C187.8,56.1 215.9,49.9 215.9,56.2 C215.9,58.4 214,59.9 209.4,59.9 C203.7,59.9 196,56.7 192.4,53.5 L186,64.1 C191.1,68.6 200,71.5 208.6,71.5 Z" id="Path"></path>
                <path d="M274.3,71.5 C288.9,71.5 298.9,63.9 298.9,47.4 L298.9,3.6 L281.7,3.6 L281.7,47.2 C281.7,52.8 278.2,56.3 272.8,56.3 C268.8,56.3 265.6,54.4 263.2,52.4 L256,65.5 C261,69.9 267.6,71.5 274.3,71.5 Z" id="Path"></path>
                <path d="M353,70.3 L353,40.1 C353,25.1 342.1,20.8 330.5,20.8 C323.1,20.8 314.8,23 308.6,28.3 L314.1,38 C318,34.7 323,32.9 327.8,32.9 C334,32.9 337.6,35.7 337.6,39.9 L337.6,45.7 C334.7,42.1 329,40.1 322.6,40.1 C315.2,40.1 306,43.9 306,55.6 C306,66.5 315.2,71.5 322.6,71.5 C328.8,71.5 334.6,69.1 337.6,65.5 L337.6,70.3 L353,70.3 Z M329,61.4 C324.9,61.4 321.3,59.6 321.3,55.8 C321.3,52 324.9,50.2 329,50.2 C332.4,50.2 336,51.4 337.6,53.6 L337.6,57.9 C336,60.2 332.4,61.4 329,61.4 Z" id="Shape"></path>
                <path d="M361.8,89.1 C363.4,89.6 367,89.9 368.4,89.9 C377.6,89.7 384.9,87.4 388.8,77.2 L410.6,22 L394.3,22 L383.3,52.6 L372.4,22 L356.2,22 L375.4,71 L374.3,73.6 C373.5,75.6 371.3,76.3 367.8,76.3 C366.6,76.3 365.1,76 364,75.4 L361.8,89.1 Z" id="Path"></path>
                <path d="M461.6,70.3 L461.6,3.6 L446.3,3.6 L446.3,27.7 C442.4,22.9 437.3,20.8 432,20.8 C419.9,20.8 410.6,30.3 410.6,46.1 C410.6,62.5 420.1,71.5 432,71.5 C437.4,71.5 442.3,69.3 446.3,64.7 L446.3,70.3 L461.6,70.3 Z M437,57.9 C430.9,57.9 426.4,53.3 426.4,46.1 C426.4,38.9 430.9,34.4 437,34.4 C440.3,34.4 444.3,36.1 446.3,38.7 L446.3,53.5 C444.3,56.1 440.3,57.9 437,57.9 Z" id="Shape"></path>
                <path d="M494.7,71.5 C502.1,71.5 510.1,69.4 514.9,65.1 L508.4,55.5 C505.7,58.1 499.8,59.6 496.4,59.6 C489.4,59.6 485.2,55.5 484.3,51 L518.7,51 L518.7,47.7 C518.7,31.3 508.3,20.8 494,20.8 C478.9,20.8 468.3,32.1 468.3,46.1 C468.3,61.8 479.8,71.5 494.7,71.5 Z M504,41 L484.1,41 C484.7,37.5 487.3,32.7 494,32.7 C501.1,32.7 503.6,37.6 504,41 Z" id="Shape"></path>
                <path d="M573,70.3 L573,36.1 C573,27.2 568,20.8 557,20.8 C548.9,20.8 543.2,24.5 540.3,27.9 L540.3,22 L524.9,22 L524.9,70.3 L540.3,70.3 L540.3,39.1 C542.1,36.9 545.1,34.4 549.7,34.4 C554.5,34.4 557.6,36.5 557.6,42.4 L557.6,70.3 L573,70.3 Z" id="Path"></path>
            </g>
        </g>
        <g id="Group" fill-rule="nonzero">
            <g id="Path">
                <polygon fill="url(#linearGradient-1)" points="76.25 29.1899 49.73 0 0 55.4 52.72 55.4"></polygon>
                <polygon fill="url(#linearGradient-2)" points="26.51 84.6 2.97998 110.8 29.5 140 79.23 84.6"></polygon>
                <polygon fill="url(#linearGradient-3)" points="26.51 84.6 50.8899 57.4299 52.72 55.4 0 55.4"></polygon>
                <polygon fill="url(#linearGradient-4)" points="26.51 84.6 79.23 84.6 52.72 55.4 50.8899 57.4299"></polygon>
            </g>
        </g>
    </g>
</svg>