<svg xmlns="http://www.w3.org/2000/svg" viewBox="0 0 425.2 330">
    <defs><style>.cls-1{fill:#d7e2ee;}.cls-2{fill:#2d3e60;}.cls-3{fill:#dd830c;}</style>
    </defs>
    <title>Logo_skygge_hovedlogo_blå</title><g id="Layer_1" data-name="Layer 1">
    <polygon class="cls-1" points="195.74 146.5 201.25 139.8 204.41 112.22 176.43 134.29 166.57 153.99 137.41 159.11 115.74 176.45 128.5 169.36 169.48 169.36 176.97 162.26 191.01 159.11 195.74 146.5"/><polygon class="cls-1" points="203.22 156.35 190.22 164.63 183.27 172.12 190.36 170.54 193.37 168.57 209.92 159.11 217.28 151.89 218.59 142.96 208.35 147.68 203.22 156.35"/><polygon class="cls-1" points="130.32 127.59 137.41 127.19 155.15 124.83 157.12 117.74 142.14 110.64 147.46 106.27 155.55 101.33 155.55 96.01 153.64 90.74 142.79 102.1 141.75 101.58 126.77 103.94 131.5 115.77 118.89 114.19 112.59 100.79 97.22 116.55 91.29 118.73 89.34 110.25 75.94 103.55 70.82 113.8 69.64 130.35 58.6 135.99 63.72 123.78 49.54 107.1 48.75 114.98 41.66 125.22 36.53 136.65 36.44 138.23 29.08 144.93 34.96 145.56 32.23 159.11 59.78 147.68 75.15 136.65 78.7 131.13 78.26 127 78.42 126.93 79.88 136.26 99.58 129.56 109.04 119.31 116.14 124.04 130.32 127.59"/>
    <polygon class="cls-1" points="156.92 81.68 158.69 78.33 157.71 73.01 153.57 66.9 150.02 73.6 152.39 85.62 156.92 81.68"/>
    <polygon class="cls-1" points="391.92 165.38 391.19 152.81 385.29 135.89 380.29 117.87 376.22 126.01 376.98 128.57 372.15 133.76 367.12 137 364.39 129.03 352.57 118.66 352.49 122.52 351.39 116.95 334.05 118.52 315.93 107.88 312.38 92.91 303.9 105.79 292.28 92.12 291.89 79.91 287.95 75.18 286.37 67.69 283.22 72.42 282.82 83.06 285.98 102.76 278.1 105.13 279.28 115.37 294.25 119.31 302.13 118.13 309.62 116.4 313.17 119.71 325.38 129.56 331.29 127.98 339.18 135.86 349.42 142.17 355.42 139.17 360.32 147.16 376.64 162.17 381.91 163.06 384.27 165.84 391.92 165.38"/>
    <path class="cls-2" d="M96.44,196.49H86.09a1.76,1.76,0,0,0-1.95,1.89V199a1.78,1.78,0,0,0,1.95,1.89h7.32V205c0,5.21-2.56,7.54-8.29,7.54s-8.72-2.88-8.72-8.56V190c0-5.65,2.92-8.51,8.67-8.51s8.13,2.19,8.13,7.32v.59a1.21,1.21,0,0,0,1.3,1.3h2.59a1.24,1.24,0,0,0,1.3-1.35v-.54c0-7.62-4.61-11.65-13.32-11.65-9,0-14.18,4.82-14.18,13.21v13.31c0,8.36,5.15,13.16,14.13,13.16,8.69,0,13.48-4.21,13.48-11.86v-6.47A1.85,1.85,0,0,0,96.44,196.49Z"/><path class="cls-2" d="M120.52,188.14c-7.43,0-11.86,4.05-11.86,10.84V206c0,6.79,4.43,10.84,11.86,10.84s11.92-4.05,11.92-10.84V199C132.44,192.19,128,188.14,120.52,188.14ZM114,198.6c0-4.14,2.21-6.24,6.57-6.24s6.57,2.1,6.57,6.24v7.76c0,4.18-2.21,6.3-6.57,6.3s-6.57-2.12-6.57-6.3Z"/><path class="cls-2" d="M163.48,209v-11.7c0-5.79-4-9.11-10.84-9.11-6.68,0-10.35,2.89-10.35,8.14v.32a1.21,1.21,0,0,0,1.3,1.3H146a1.16,1.16,0,0,0,1.3-1.25v-.38c0-1.85.61-4,5.38-4,3.82,0,5.6,1.49,5.6,4.68v3.77a26.88,26.88,0,0,0-6.14-.71c-7.16,0-10.78,2.76-10.78,8.2v.48c0,5.1,3.81,8.15,10.19,8.15,3.79,0,7-1.61,8.65-4.34l3.26,3.25a2.17,2.17,0,0,0,1.53.71h0a2,2,0,0,0,1.44-.65l.59-.59a1.9,1.9,0,0,0-.11-2.91Zm-5.24-4.44v3.25c0,2.95-2.5,5-6.08,5-3.79,0-5.71-1.41-5.71-4.2V208c0-2.9,1.93-4.25,6.08-4.25A23.8,23.8,0,0,1,158.24,204.51Z"/><path class="cls-2" d="M189.18,188.73H183v-5.87a2,2,0,0,0-2.05-2.11h-1.08a2,2,0,0,0-2.11,2.11v5.87h-3.66a1.41,1.41,0,0,0-1.52,1.46v1.24a1.4,1.4,0,0,0,1.52,1.41h3.66v15.62c0,5.63,2.27,7.82,8.09,7.82h3.23a1.45,1.45,0,0,0,1.52-1.57v-1.18a1.37,1.37,0,0,0-1.46-1.46h-3c-2.3,0-3.12-1-3.12-3.66V192.84h6.14a1.39,1.39,0,0,0,1.46-1.41v-1.24A1.4,1.4,0,0,0,189.18,188.73Z"/><path class="cls-3" d="M226.58,212.18h-3.23V198.71c0-6.52-4-10.57-10.52-10.57-3.83,0-6.77,1.6-8.35,4.53L201,189.22a2.22,2.22,0,0,0-1.45-.68,2,2,0,0,0-1.52.63l-.59.59a2,2,0,0,0,.11,2.91l3.55,3.61v15.9h-3a1.4,1.4,0,0,0-1.52,1.41v1.29a1.43,1.43,0,0,0,1.52,1.41H209.5a1.43,1.43,0,0,0,1.52-1.41v-1.29a1.4,1.4,0,0,0-1.52-1.41h-3.07V198.71c0-4.09,2-6.25,5.87-6.25s5.76,2.16,5.76,6.25v15.47a1.87,1.87,0,0,0,2.11,2.11h6.41a1.39,1.39,0,0,0,1.46-1.41v-1.29A1.36,1.36,0,0,0,226.58,212.18Z"/><path class="cls-2" d="M258.19,196.59c3.66-1.29,5.58-3.92,5.58-7.69v-1.45c0-6.32-4.1-9.65-11.86-9.65H236a1.44,1.44,0,0,0-1.52,1.46v1.29A1.4,1.4,0,0,0,236,182h3.33v30.17H236a1.4,1.4,0,0,0-1.52,1.41v1.29a1.44,1.44,0,0,0,1.52,1.46h16.33c7.86,0,12.19-3.51,12.19-9.87v-1.56C264.53,200.72,262.34,197.89,258.19,196.59Zm-13.44-1.82V181.85h6.94c4.49,0,6.68,1.8,6.68,5.49v1.94c0,3.75-2.12,5.49-6.68,5.49Zm14.37,9.71v2c0,3.89-2.22,5.71-7,5.71h-7.38V198.77h7.32C256.62,198.77,259.12,200.79,259.12,204.48Z"/><path class="cls-2" d="M285.7,212.12h-3.17V190.79a1.85,1.85,0,0,0-2.11-2.05h-6.31a1.43,1.43,0,0,0-1.52,1.41v1.29a1.43,1.43,0,0,0,1.52,1.41h3.12v19.28h-3.12a1.43,1.43,0,0,0-1.52,1.41v1.29a1.44,1.44,0,0,0,1.52,1.46H285.7a1.44,1.44,0,0,0,1.52-1.46v-1.29A1.43,1.43,0,0,0,285.7,212.12Z"/><path class="cls-2" d="M278.8,185h1.35a2.23,2.23,0,0,0,2.38-2.43v-2.48a2.23,2.23,0,0,0-2.38-2.43H278.8a2.23,2.23,0,0,0-2.38,2.43v2.48A2.23,2.23,0,0,0,278.8,185Z"/><path class="cls-2" d="M320.13,188.73h-10a1.43,1.43,0,0,0-1.52,1.41v1.24a1.43,1.43,0,0,0,1.52,1.41h2.42l-6.64,7.33a3.11,3.11,0,0,0-1,2.2,2.94,2.94,0,0,0,.92,2.15l10.94,11.26h0a2.82,2.82,0,0,0,2,.91,2.63,2.63,0,0,0,1.64-.61,2.49,2.49,0,0,0,1-1.8,2.51,2.51,0,0,0-.76-1.95L310,201.56l8-8.71h2a1.39,1.39,0,0,0,1.46-1.41v-1.29A1.39,1.39,0,0,0,320.13,188.73Z"/><path class="cls-2" d="M306.44,212.18h-3.12V179.85a1.82,1.82,0,0,0-2.05-2.05H295a1.39,1.39,0,0,0-1.46,1.41v1.29A1.36,1.36,0,0,0,295,181.9h3.07v30.28H295a1.36,1.36,0,0,0-1.46,1.41v1.29a1.39,1.39,0,0,0,1.46,1.41h11.43a1.42,1.42,0,0,0,1.46-1.41v-1.29A1.39,1.39,0,0,0,306.44,212.18Z"/><path class="cls-2" d="M348.75,204.37a1.86,1.86,0,0,0,2.05-2.11v-3.83c0-6.64-4.06-10.3-11.43-10.3s-11.49,3.83-11.49,10.52v7.87c0,6.58,4.3,10.35,11.81,10.35,7,0,10.79-2.87,10.79-8.09v-.38a1,1,0,0,0-1.08-1.09h-2.75a1,1,0,0,0-1.14,1.09v.32c0,1.73-.6,4-5.81,4-4.48,0-6.57-1.88-6.57-5.92v-2.47Zm-15.62-4v-2.26c0-3.93,2.1-5.92,6.25-5.92s6.35,1.94,6.35,5.92v2.26Z"/><path class="cls-2" d="M121.57,153.21l.06,0,5.09-10.86,1.65-3.33.36-6.11-2.16-5.75,6,1.11,8.8-.26,7.39-1-.11.18-8.6,9-4.07.39-4.6,9.59,7.62-1.05,5-3.15L164.21,123l-.92-5-16.66-5.72-.23-2.58,8.94-6.79.2-3.45-1.82,2.45-7.06,2.46-4.73,3.94-3.42-2.5-2.76,2.76,3.78,4.56.11,0-.08.11,12.36,4,2.45,3.12-1.7,2.43-5.13-1.44-12.68,2.46-17.23-2.46L109.87,112v.1l0-.23-5.39,8.67-18.92,9.85L82.11,126,82,114.58l-5.78-.26.26-4.86-2.36,2-.39,5.25L78.44,118v0L76.17,131.2l-4.7,2L58.64,144.73,44.45,151l-11.89,7.88-1.9,1.77s25.16-9.67,29.22-11L51.95,159l.07,3,14.84,6.25.08,1,5.21,3.84,11.09-2.63L76,163.36l.07-.05-.16,0-.12-.12-.13.05-11.53-3-.1-1,13.47-4.93,11.19-19.2,0,0,19.41-6,2.7-4.82.92.17,6.94,11.23-4.22,15.86L108,155.84l1.09,13,7.78-5.91Z"/><path class="cls-2" d="M167.89,140.33l-30.74,11.56-21.41,24.56L136,171.72l4.06-4.86,13.4-3.15,7.88,2.89,17.86-9.19,2.63-8.41,8.14-6.57-1.05-5.25,9.72-8.67-2.1,13.66-8.93,6,2.36,4.2,14.19-8.14L206,132.71l8.67-9.46,1.16-14.67,4.75.75,3.15-1.05,3.54,2.75v.08l3.57,2.8,3,2.78.39.41,0,0,6.41,5.93,12.87,5.25,13.08,3.09,21.61,23.58,15.63,6.57-13.79-10-15-16.42-2.36-7.88-5-3.42-12.87.79L243,120.36l-8-4.42-7.76-6.26-2.74-3.38-3.94.92-4.6-.53-10.77-5-15,8.14-11.3,16.55Zm60.7-29.07-.16-.11-.29-.36Z"/><polygon class="cls-2" points="228.05 126.93 223.85 122.73 220.96 122.99 223.32 131.92 215.44 137.44 221.74 142.69 229.1 135.6 228.05 126.93"/><polygon class="cls-2" points="215.96 147.16 210.71 156.35 200.2 163.45 205.46 163.97 220.17 159.24 217.28 151.89 222.27 145.06 215.96 147.16"/><polygon class="cls-2" points="268.32 148.21 266.01 149.37 270.34 157.74 270.63 164.95 273.36 170.33 283.22 170.54 280.73 166.69 280.44 161.78 268.32 148.21"/><path class="cls-2" d="M44,100.37l.05,0h.05l3.83.38,2,.41L51.38,97,56.89,95l6.57-6,15.48-.71,7.57,1.21L105.23,80l.29-.09,18.13-6.08-.11-3.85,20.3-15.79,14.45-6.83,1.51-2a60.39,60.39,0,0,1,8.47,7.29h0l3.15-.13.83-1.19,2.85,1.19.26,2,4.81,5.85.18,3.74L182,66.85a34.25,34.25,0,0,0-1.11-9.94,36.47,36.47,0,0,0-5.12-11h0c-8.63-10.73-35.76-34.47-71.4-5.23l.07.12A61.55,61.55,0,0,1,138,36.3a27.94,27.94,0,0,0-12.57,8.57l.1.14c2.11-.79,14.2-5.2,22.72-6A52.15,52.15,0,0,1,158,44a37,37,0,0,0-4.86,1.34,49,49,0,0,0-6,2.52,79.45,79.45,0,0,0-11.05,6.7c-1.75,1.25-3.46,2.57-5.13,3.93L126,62.67l-9.84,8.24L97.07,81.08,89.1,83,72.88,86.08l-13.23.26h-.13l-.1.08L48.58,94.51c-2.2.51-4.43.94-6.67,1.26-1.13.16-2.27.29-3.4.36a17.37,17.37,0,0,1-3.37-.06l-3.34-.47,3.14,1.23Z"/><polygon class="cls-2" points="40.75 135.16 48.07 130.43 53.22 123.73 53.38 120.57 49.64 123.19 43.09 128.32 43.66 126.41 49.73 118.13 53.38 104.73 62.55 96.56 67.8 93.7 61.89 92.71 57.29 96.59 52.03 98.82 51.24 102.76 48.36 106.83 46.38 115.63 33.01 140.14 29.08 144.93 29.08 151.82 34.76 141.6 40.75 135.16"/><path class="cls-2" d="M375.92,118.16l6,7.06-.79-7.29,2.27-3.45,4.47-3.14,2.36-.34a38.27,38.27,0,0,0,5.88,1.5c-3.74-1.18-7.78-8.77-7.78-8.77l-13.79-3.94-5.91-3.74-19.8-3-13.47-6.41a74.93,74.93,0,0,1-14.82-12.21l-5.89-6.78L312,64.45c-.7-.9-1.4-1.79-2.07-2.68-6.49-8.51-11.7-15.7-21.16-18.71,10.92-10.79,22.81-7.38,26.9-6l0-.06c-9.71-4.74-17.83-5.09-24.16-3.34a39.76,39.76,0,0,1,7.14-3.09l0-.11c-12-.18-20,6.68-22.82,11.19-7.95,1.76-11,9.29-11,9.29l-1,3.37a45.93,45.93,0,0,1-9,16c-.72.79,1.55,4.54,4.53,4.86,4.4.48,5.59,1,5.51,2.3-.43.73-1.12,1.64-1.12,1.64l.6.26,1-1.07c.81-.78,2.24-2.08,4.73-4.25,1.5-1.31,7-.28,9.69-1.33l.62-.06,1.74,3.49-.89,6.5,2.17,7.78,1.45-4.33L295.4,80.4l4.63.3,3.08-3.74-4-.1-3.25-1-10.6,5.29-.49-6.4,1-3.12,2.43-1.35,1.18-3.65-1.94-2.5-1.58,3.35-3.65,3.84-.48.28-1.92,0-1.89-1.53-3.55-4.73,1.92-7.39,1.36-2.59-1.18-2.23h-3.81l-2.76,2.36-4.07-1.18-.48-1.68L270,47.26l7.26-2.66,2.31,3.08,4.11,1.67a41.62,41.62,0,0,1,3.23-4.28l10.21,7.34,10.08,14,3.94,3.65-.92,7.36,14.58,5.39,12.73,6c.32.18.62.36.94.54l9.57,6.8,19.31,2.07,6.37,4.89,7.06,7-.37,3.75Z"/><path class="cls-2" d="M374.12,159.83l-.79-1-7.95-7.09-10.54-23.15-.82-5.19,1.18-4.63-3.71-3.28L350,120.1l1.08,3.25-1,4.63,2.66,7.47-1,.39-6.7-5.3-5.3.84-4.91-2.31-7.59-8.44-8-1.87-3.05-5.85-2.89-6.34L312.28,112l-3.64,4.1-6.51-.49-8.08,2.36-5.12-3.15L282.28,113l-2-6.09.12-.11,3.86-.12,2.26-.2,5.09-.49v-4l-4.07-2.63-3.27-6.81-.22-.61.2,9.56-1.09,1.39-8.47,2-3,1.28.3,5.71,3.09,3.3,8.43,19.55L290,141.9l.68-3.88h0l1.05-6-3.21-1.69L285,117.74l12.81,3.94,3.78-2.68-1.68,8.3.59,4.83,1.48,2.56,4.58,8.37,0,0,4.18,7.51,6.47,4.3.22-10.4-5.34-3.14L308,129l4.08-7.64,4.85,2L321,129l6,4.24,4.69-2.46,3.34,5.66,1.77,5s6.69,20.37,7.16,20.46c3.19.62,11.24,1.92,14.32,2.41l0,.83L344,172.74h-.17l-.07.12-.21.11.13,0L339,180.4l10.54-1.06,3.75-4.9,14.69-6.8-.2-7.42-7.91-9-.69-3.39,2.69,3.73Z"/><polygon class="cls-2" points="390.7 147.39 382.62 126.01 380.82 131.13 387.91 148.67 391.75 166.07 392.94 168.81 392.14 161.31 390.7 147.39"/><path class="cls-2" d="M178.94,67l-1.31-.79-3.55-4.33-2.5-.66-1.31,1.44.79,6.17-1.59,6.44-3.64,2.53-6.14-1.28-.85-4.27-4.56-4.43-.79,3.81,2.5,3,.56,2.82L152,84.63h0l-1.45,1-3.42-4-6-2.63-2.76-3.94-5-.3.79,5,10,4.47,2.76,5,3.05.15,4.62,5.26.89,3.45,0-4-2.06-6,2-2.85,3.11-5.63L159,79l1.54.22h0l2.25.41c1.94,1.72,1.19,4.62,1.19,4.62C162.11,94,166.57,103,166.57,103l3.42,1.31.12-1.81-1.17-3.31s1.43,2,2.37,3.36a17.34,17.34,0,0,0,3.41.45c-.53-.26-4.91-2.81-4.73-9.33.09-3.27.88-4.84,1.86-5.51l-.29-1.72L174.51,88a6.43,6.43,0,0,1,1.65.85c3,1.58,3.15,3.55,5.91,2.36s5.65-7,5.65-7c-2-3.44-4-10.47-5.72-17.39Z"/><path class="cls-2" d="M198.76,280l-1-.19-.47,2.5,1,.19c1,.19,1.24-.33,1.32-.74l.11-.59a.89.89,0,0,0-.14-.77A1.36,1.36,0,0,0,198.76,280Z"/><path class="cls-2" d="M192,278.46l-1-.27-.68,2.45,1,.27a1.27,1.27,0,0,0,1,0,.93.93,0,0,0,.41-.6l.16-.58C193,279.3,193,278.74,192,278.46Z"/><path class="cls-2" d="M205.25,280.9l-.69-.07-.5,5.22.69.07a2.05,2.05,0,0,0,1.4-.24,1.52,1.52,0,0,0,.55-1.17l.2-2.05C207,281.54,206.51,281,205.25,280.9Z"/><path class="cls-2" d="M173.19,270.56l-1-.56-1,1.76,1,.56a1.32,1.32,0,0,0,.83.23.77.77,0,0,0,.51-.42l.18-.31C173.89,271.46,174,271,173.19,270.56Z"/><path class="cls-2" d="M171.66,273.3l-1-.6-1.08,1.85,1,.6a1.28,1.28,0,0,0,.92.24A.83.83,0,0,0,172,275l.19-.33a.78.78,0,0,0,.09-.7A1.37,1.37,0,0,0,171.66,273.3Z"/><polygon class="cls-2" points="212.03 284.27 213.49 284.27 212.77 281.87 212.03 284.27"/><path class="cls-2" d="M184.85,276a2.09,2.09,0,0,0-.73-.15,1.11,1.11,0,0,0-.44.08,1.42,1.42,0,0,0-.72.87l-.91,2.39a1.43,1.43,0,0,0,0,1.13,1.56,1.56,0,0,0,.92.73,1.27,1.27,0,0,0,1.89-.8l.91-2.39a1.42,1.42,0,0,0,0-1.12A1.57,1.57,0,0,0,184.85,276Z"/><path class="cls-2" d="M306.8,225.72l-.14-.24H280.25a71.61,71.61,0,0,1-67.14,47,70.68,70.68,0,0,1-44.91-15.86A72,72,0,0,1,146,225.48H120.87a8.1,8.1,0,0,1-.63,1.24,9.38,9.38,0,0,1-5.22,4.12c.4,1.3.81,2.6,1.26,3.88a9.41,9.41,0,0,1,6.67.2,8.46,8.46,0,0,1,4.55,4.31,8.29,8.29,0,0,1,.21,6.28,9.26,9.26,0,0,1-4.23,5.12q1,1.78,2.06,3.52a9.28,9.28,0,0,1,6.54-1.18,8.31,8.31,0,0,1,5.37,3.26,8.46,8.46,0,0,1,1.53,6.08,9.41,9.41,0,0,1-3.1,5.92c.9,1,1.82,2,2.76,3a9.43,9.43,0,0,1,6.16-2.53,8.24,8.24,0,0,1,8.68,7.72,9.44,9.44,0,0,1-1.8,6.41c1.09.81,2.18,1.62,3.3,2.39a9.41,9.41,0,0,1,5.52-3.76,8.46,8.46,0,0,1,6.22.82,8.32,8.32,0,0,1,3.86,5,9.28,9.28,0,0,1-.42,6.63h0q1.85.86,3.73,1.64a9.25,9.25,0,0,1,4.6-4.79,8.31,8.31,0,0,1,6.26-.52,8.51,8.51,0,0,1,4.81,4,9.44,9.44,0,0,1,1,6.61c1.32.3,2.66.56,4,.81A9.45,9.45,0,0,1,198,296a8.24,8.24,0,0,1,11.55,1.14,9.49,9.49,0,0,1,2.32,6.25c1.35,0,2.71,0,4.08,0a9.49,9.49,0,0,1,2.24-6.3,8.38,8.38,0,0,1,2.46-2,7.7,7.7,0,0,1,3-1,8.53,8.53,0,0,1,6,1.74,9.43,9.43,0,0,1,3.56,5.63c1.34-.26,2.67-.53,4-.84a9.45,9.45,0,0,1,.9-6.63,8.9,8.9,0,0,1,2-2.48,7.47,7.47,0,0,1,2.77-1.6,8.37,8.37,0,0,1,6.27.47,9.28,9.28,0,0,1,4.64,4.74c1.25-.54,2.49-1.09,3.72-1.67a9.35,9.35,0,0,1-.49-6.64,8.3,8.3,0,0,1,10-5.86,9.34,9.34,0,0,1,5.55,3.69q1.67-1.18,3.28-2.42a9.29,9.29,0,0,1-1.86-6.38,8.42,8.42,0,0,1,2.67-5.69,7.52,7.52,0,0,1,2.76-1.63,8.37,8.37,0,0,1,3.13-.53,9.49,9.49,0,0,1,6.21,2.47q1.39-1.5,2.71-3a9.49,9.49,0,0,1-3.17-5.88,8.38,8.38,0,0,1,.16-3.17,7.55,7.55,0,0,1,1.3-2.93,8.42,8.42,0,0,1,5.34-3.31,9.29,9.29,0,0,1,6.55,1.11c.7-1.17,1.38-2.34,2-3.54a9.33,9.33,0,0,1-4.3-5.09,8.3,8.3,0,0,1,4.67-10.63,9.36,9.36,0,0,1,6.66-.27c.44-1.28.84-2.58,1.23-3.89A9.34,9.34,0,0,1,306.8,225.72ZM159.87,267.87a.43.43,0,0,1,.06.63l-.16.18a.44.44,0,0,1-.33.16.47.47,0,0,1-.31-.12l-1.69-1.47a.44.44,0,0,1,0-.63l.16-.18a.43.43,0,0,1,.63,0l.34.3,2.71-3.11-2.78,1.4a.61.61,0,0,1-.88-.77l1-2.94-2.71,3.11.34.3a.46.46,0,0,1,.17.32.43.43,0,0,1-.11.32l-.16.18a.45.45,0,0,1-.31.15.44.44,0,0,1-.33-.12l-1.57-1.37a.45.45,0,0,1-.05-.64l.16-.18a.44.44,0,0,1,.63,0l.33.29,3.44-3.95-.33-.29a.47.47,0,0,1-.17-.32.43.43,0,0,1,.11-.32l.16-.18a.44.44,0,0,1,.64,0l.85.74.2-.23-.11.31.32.28a.67.67,0,0,1,.19.8l-1,2.9,2.74-1.4a.65.65,0,0,1,.81.08l.18.15.29-.15-.2.23,1,.85a.44.44,0,0,1,.05.64l-.16.18a.43.43,0,0,1-.64,0l-.33-.29-3.45,3.95Zm5,3.64a.43.43,0,0,1,.11.62l-.14.2a.44.44,0,0,1-.36.19.46.46,0,0,1-.27-.09h0l-1.9-1.35a.45.45,0,0,1-.11-.63l.14-.2a.43.43,0,0,1,.28-.18.47.47,0,0,1,.35.09l.39.28,3.06-4.29-.89-.63-.68,1a.47.47,0,0,1-.67.12l-.19-.13a.49.49,0,0,1-.21-.32.49.49,0,0,1,.09-.37l1-1.39a.55.55,0,0,1,.37-.24.54.54,0,0,1,.42.11l3.94,2.8a.53.53,0,0,1,.13.78l-1,1.39a.48.48,0,0,1-.68.12l-.19-.13a.47.47,0,0,1-.2-.3.49.49,0,0,1,.09-.37l.68-1-.89-.63-3.06,4.29Zm10,1-.14.23a1.57,1.57,0,0,1-1.38.83,1.65,1.65,0,0,1,0,1.79l-.15.25a1.82,1.82,0,0,1-1.34,1l-.25,0a3.09,3.09,0,0,1-1.53-.49l-2.61-1.53a.45.45,0,0,1-.17-.62l.12-.21a.43.43,0,0,1,.27-.2.45.45,0,0,1,.36.06l.38.22,2.65-4.52-.38-.22a.48.48,0,0,1-.21-.25.43.43,0,0,1,0-.36l.12-.21a.44.44,0,0,1,.27-.21.46.46,0,0,1,.35.05l2.55,1.49a2.74,2.74,0,0,1,1.25,1.29A1.79,1.79,0,0,1,174.84,272.52ZM187,278.43l-.87,2.3a2.53,2.53,0,0,1-1.42,1.55,2.4,2.4,0,0,1-.87.16,3.71,3.71,0,0,1-1.31-.27,3.06,3.06,0,0,1-1.7-1.36,2.53,2.53,0,0,1,0-2.11l.87-2.3a2.53,2.53,0,0,1,1.42-1.55,3.56,3.56,0,0,1,3.89,1.47A2.53,2.53,0,0,1,187,278.43Zm7.2,1.63-.16.59a1.91,1.91,0,0,1-1.11,1.33,2.92,2.92,0,0,1-1.89,0l-1-.27-.42,1.52.48.13a.44.44,0,0,1,.33.55l-.06.23a.44.44,0,0,1-.21.27.45.45,0,0,1-.22.06l-.14,0-2.21-.61a.46.46,0,0,1-.28-.21.44.44,0,0,1,0-.34l.06-.23a.44.44,0,0,1,.56-.3l.43.12,1.4-5-.42-.12a.47.47,0,0,1-.29-.22.43.43,0,0,1,0-.33l.06-.23a.45.45,0,0,1,.56-.31l2.72.75C193.87,277.8,194.56,278.78,194.2,280.06Zm6.87,1.34-.11.6c-.25,1.31-1.29,1.88-2.87,1.59l-1-.19-.29,1.55.49.09a.44.44,0,0,1,.38.52l0,.24a.44.44,0,0,1-.18.29.46.46,0,0,1-.26.08h-.1l-2.26-.42a.45.45,0,0,1-.37-.53h0l0-.23a.43.43,0,0,1,.18-.28.45.45,0,0,1,.35-.07l.43.08,1-5.15-.43-.08a.44.44,0,0,1-.37-.52l0-.24a.45.45,0,0,1,.54-.36l2.77.52C200.55,279.18,201.31,280.1,201.07,281.4Zm7.19,1.45-.18,1.91a2.56,2.56,0,0,1-2.88,2.5l-.57,0-2.46-.23a.45.45,0,0,1-.41-.49l0-.24a.43.43,0,0,1,.16-.3.45.45,0,0,1,.35-.1l.44,0,.5-5.22-.44,0a.44.44,0,0,1-.42-.48l0-.24a.44.44,0,0,1,.15-.3.49.49,0,0,1,.34-.1l2.46.24a3.59,3.59,0,0,1,2.26.89A2.6,2.6,0,0,1,208.26,282.85Zm8.07,4.36a.43.43,0,0,1-.45.45h-2.06a.46.46,0,0,1-.33-.13.45.45,0,0,1-.13-.32V287a.43.43,0,0,1,.46-.44h.35l-.34-1.13h-2.15l-.35,1.13h.35a.43.43,0,0,1,.45.44v.24a.45.45,0,0,1-.13.33.44.44,0,0,1-.32.12H209.8a.43.43,0,0,1-.45-.45V287a.43.43,0,0,1,.45-.44h.3L212,280.6a.62.62,0,0,1,.62-.49h.56a.61.61,0,0,1,.62.5l1.83,5.92h.3a.44.44,0,0,1,.33.13.43.43,0,0,1,.12.32ZM223,287a.56.56,0,0,1-.39.18l-4.37.37h0a.46.46,0,0,1-.29-.1.45.45,0,0,1-.17-.31l0-.24a.43.43,0,0,1,.1-.32.47.47,0,0,1,.32-.16l.44,0-.44-5.23-.44,0a.44.44,0,0,1-.34-.1.43.43,0,0,1-.15-.3l0-.24a.45.45,0,0,1,.42-.49l2.29-.19a.46.46,0,0,1,.51.41l0,.24a.43.43,0,0,1-.1.32.48.48,0,0,1-.33.16l-.5,0,.44,5.25,1.93-.16-.1-1.14a.48.48,0,0,1,.45-.53l.23,0a.48.48,0,0,1,.36.1.48.48,0,0,1,.17.34l.14,1.69A.55.55,0,0,1,223,287Zm13.32-2.42h0l0,.15-.1-.13-.3.08a.74.74,0,0,1-.89-.33l-3.3-4.2,1,4.13.43-.11a.47.47,0,0,1,.33,0,.42.42,0,0,1,.22.28l.06.23a.44.44,0,0,1,0,.34.46.46,0,0,1-.29.21l-2,.51-.12,0a.44.44,0,0,1-.43-.34l-.06-.23a.44.44,0,0,1,.34-.54l.43-.11-1.28-5.08-.43.11a.44.44,0,0,1-.55-.31l-.06-.23a.44.44,0,0,1,0-.34.46.46,0,0,1,.29-.21l1.1-.28-.06-.23.16.2.39-.1a.71.71,0,0,1,.85.33l3.18,4.11-1-4-.43.11a.43.43,0,0,1-.55-.31l-.06-.23a.44.44,0,0,1,0-.34.46.46,0,0,1,.29-.21l2-.51a.44.44,0,0,1,.56.32l.06.23a.43.43,0,0,1-.34.54l-.43.11,1.41,5.57A.62.62,0,0,1,236.29,284.55Zm7.79-3.2a3,3,0,0,1-1.74,1.34,3.74,3.74,0,0,1-1.25.24,2.39,2.39,0,0,1-2.33-1.75l-.83-2.32a2.53,2.53,0,0,1,.08-2.11,3.07,3.07,0,0,1,1.73-1.33c1.69-.61,3,0,3.58,1.51l.83,2.32A2.53,2.53,0,0,1,244.07,281.35Zm7.86-2.87a.67.67,0,0,1-.91.22L248,277a.76.76,0,0,1-.35-.34.48.48,0,0,1,0-.38.49.49,0,0,1,.27-.27l.42-.2c.87-.41.78-.87.63-1.18l-.33-.72c-.08-.18-.34-.72-1.32-.27l-1,.48,2.22,4.76.4-.19a.47.47,0,0,1,.35,0,.44.44,0,0,1,.24.23l.1.21a.44.44,0,0,1-.22.6l-2,.95a.49.49,0,0,1-.2,0,.44.44,0,0,1-.4-.26l-.1-.22a.43.43,0,0,1,0-.33.47.47,0,0,1,.25-.26l.4-.19L245,274.7l-.4.19a.47.47,0,0,1-.36,0,.44.44,0,0,1-.25-.23l-.1-.22a.44.44,0,0,1,0-.34.46.46,0,0,1,.24-.26l2.67-1.24a2.92,2.92,0,0,1,1.81-.32,1.74,1.74,0,0,1,1.23,1l.32.69a1.75,1.75,0,0,1-.68,2.32l2.24,1.21a.65.65,0,0,1,.23.94Zm7.27-4.08-.11.06.08.21-.16-.16-.26.16a.62.62,0,0,1-.83-.12l-2.66-2.68,1.11,3.61a.62.62,0,0,1-.28.79h0l-.12.07.07.22-.15-.17-.25.15a.62.62,0,0,1-.33.1.64.64,0,0,1-.47-.22l-4-4.46-.23.14a.45.45,0,0,1-.35.06.43.43,0,0,1-.27-.21l-.12-.2a.43.43,0,0,1,.15-.62l1.75-1a.46.46,0,0,1,.35-.06.45.45,0,0,1,.28.21l.12.2a.43.43,0,0,1,.05.33.46.46,0,0,1-.22.28l-.33.2,2.88,3.25-1.27-4.15a.62.62,0,0,1,.25-.79l.16-.1a.62.62,0,0,1,.81.16l3.06,3.07-1.52-4.07-.33.2a.47.47,0,0,1-.33.07.43.43,0,0,1-.29-.21l-.12-.21a.45.45,0,0,1-.06-.34.47.47,0,0,1,.22-.28l1.59-1a.44.44,0,0,1,.62.15l.13.21a.43.43,0,0,1,.05.33.46.46,0,0,1-.22.28l-.23.14,2,5.64A.6.6,0,0,1,259.2,274.4Zm8-5.76-1.65,1.24a.44.44,0,0,1-.64-.08l-.15-.19a.43.43,0,0,1,.1-.63l.28-.21-1-.69-1.72,1.29.4,1.11.28-.21a.43.43,0,0,1,.62.08l.14.19a.43.43,0,0,1-.09.63h0l-1.5,1.13a.47.47,0,0,1-.28.09.44.44,0,0,1-.35-.19l-.14-.19a.43.43,0,0,1-.09-.32.45.45,0,0,1,.19-.3l.23-.18-2.08-5.83a.62.62,0,0,1,.2-.77l.45-.33a.61.61,0,0,1,.79,0l5,3.62.24-.18a.42.42,0,0,1,.33-.1.43.43,0,0,1,.29.18l.14.19a.43.43,0,0,1-.09.63Zm4-3.47-1.73,1.54a.47.47,0,0,1-.31.13h0a.44.44,0,0,1-.31-.16l-.16-.18a.43.43,0,0,1,0-.63l.36-.32-1.25-1.41-3.63-1.26-.24.21a.47.47,0,0,1-.33.13.43.43,0,0,1-.3-.16l-.16-.18a.43.43,0,0,1,0-.64l1.55-1.38a.44.44,0,0,1,.64,0l.16.18a.43.43,0,0,1,0,.63l-.16.14,2.21.79-.53-2.29-.16.14a.43.43,0,0,1-.64,0l-.16-.18a.44.44,0,0,1,0-.64l1.39-1.23a.44.44,0,0,1,.64,0l.16.18a.43.43,0,0,1,.11.31.46.46,0,0,1-.17.32l-.24.21.82,3.74,1.26,1.42.36-.32a.5.5,0,0,1,.34-.13.43.43,0,0,1,.3.15l.16.18A.44.44,0,0,1,271.2,265.17Z"/><polygon class="cls-2" points="262.11 268.26 263.28 267.38 261.25 265.9 262.11 268.26"/><path class="cls-2" d="M242,277.35a1.43,1.43,0,0,0-.7-.88,1.12,1.12,0,0,0-.47-.09,2.12,2.12,0,0,0-.71.14,1.28,1.28,0,0,0-.92,1.84l.86,2.41a1.28,1.28,0,0,0,1.87.84,1.56,1.56,0,0,0,.94-.71,1.43,1.43,0,0,0,0-1.13Z"/><path class="cls-3" d="M210.48,182.71a19,19,0,0,1,2.13-8.6,17,17,0,0,1,6.21-6.35,30.52,30.52,0,0,1,7.7-3.19,74.61,74.61,0,0,1,7.8-1.66c5.15-.87,10.31-1.38,15.05-2.73a14.5,14.5,0,0,0,6.13-3.13,6.44,6.44,0,0,0,1.64-2.63,3.46,3.46,0,0,0-.12-2.71,6.89,6.89,0,0,0-2.16-2.37,22,22,0,0,0-3.14-1.89c-2.24-1.14-4.63-2.11-7-3.15-1.19-.53-2.38-1-3.59-1.66a10.11,10.11,0,0,1-3.42-2.57,3.19,3.19,0,0,1-.63-2.55,4.68,4.68,0,0,1,1.14-2.08c.94-1.07,2-1.86,2.87-2.72s1.65-1.81,1.51-2.6-1.1-1.71-2.11-2.35a37.15,37.15,0,0,0-3.36-1.8c-1.17-.61-2.3-1.28-3.4-2a41.28,41.28,0,0,1-11.09-11l.81-.58a40.12,40.12,0,0,0,11,10.52c1.08.67,2.18,1.3,3.32,1.87s2.36,1.07,3.51,1.79A9.68,9.68,0,0,1,243,127.8a4,4,0,0,1,1.19,2.05,3.45,3.45,0,0,1-.53,2.4,9.13,9.13,0,0,1-1.35,1.65c-.95,1-2,1.78-2.7,2.68a3,3,0,0,0-.71,1.29,1.34,1.34,0,0,0,.34,1.08,8.54,8.54,0,0,0,2.81,1.94c1.1.53,2.32,1,3.51,1.46,2.4.92,4.85,1.79,7.28,2.89a24.52,24.52,0,0,1,3.59,2,9.52,9.52,0,0,1,3.12,3.22,6.39,6.39,0,0,1,.49,4.82,9.33,9.33,0,0,1-2.25,4,17.53,17.53,0,0,1-7.36,4.21c-5.17,1.66-10.35,2.33-15.35,3.38a70.65,70.65,0,0,0-7.31,1.82,26.23,26.23,0,0,0-6.49,2.94,12.19,12.19,0,0,0-4.34,4.77,14.09,14.09,0,0,0-1.26,6.4Z"/></g></svg>